HIERARCHY
ROOT hip
{
  OFFSET 0 0 0
  CHANNELS 6 Xposition Yposition Zposition Zrotation Yrotation Xrotation
  JOINT abdomen
  {
    OFFSET 0 20.6881 -0.73152
    CHANNELS 3 Zrotation Xrotation Yrotation
    JOINT chest
    {
      OFFSET 0 11.7043 -0.48768
      CHANNELS 3 Zrotation Xrotation Yrotation
      JOINT neck
      {
        OFFSET 0 22.1894 -2.19456
        CHANNELS 3 Zrotation Xrotation Yrotation
        JOINT head
        {
          OFFSET -0.24384 7.07133 1.2192
          CHANNELS 3 Zrotation Xrotation Yrotation
          JOINT leftEye
          {
            OFFSET 4.14528 8.04674 8.04672
            CHANNELS 3 Zrotation Xrotation Yrotation
            End Site
            {
              OFFSET 1 0 0
            }
          }
          JOINT rightEye
          {
            OFFSET -3.6576 8.04674 8.04672
            CHANNELS 3 Zrotation Xrotation Yrotation
            End Site
            {
              OFFSET 1 0 0
            }
          }
        }
      }
      JOINT rCollar
      {
        OFFSET -2.68224 19.2634 -4.8768
        CHANNELS 3 Zrotation Xrotation Yrotation
        JOINT rShldr
        {
          OFFSET -8.77824 -1.95073 1.46304
          CHANNELS 3 Zrotation Xrotation Yrotation
          JOINT rForeArm
          {
            OFFSET -28.1742 -1.7115 0.48768
            CHANNELS 3 Zrotation Xrotation Yrotation
            JOINT rHand
            {
              OFFSET -22.5879 0.773209 7.07136
              CHANNELS 3 Zrotation Xrotation Yrotation
              JOINT rThumb1
              {
                OFFSET -1.2192 -0.487915 3.41376
                CHANNELS 3 Zrotation Xrotation Yrotation
                JOINT rThumb2
                {
                  OFFSET -3.37035 -0.52449 3.41376
                  CHANNELS 3 Zrotation Xrotation Yrotation
                  End Site
                  {
                    OFFSET -1.78271 -1.18214 1.43049
                  }
                }
              }
              JOINT rIndex1
              {
                OFFSET -7.75947 0.938293 5.60832
                CHANNELS 3 Zrotation Xrotation Yrotation
                JOINT rIndex2
                {
                  OFFSET -2.54057 -0.884171 1.56538
                  CHANNELS 3 Zrotation Xrotation Yrotation
                  End Site
                  {
                    OFFSET -1.62519 -0.234802 1.16502
                  }
                }
              }
              JOINT rMid1
              {
                OFFSET -8.24714 1.18213 3.41376
                CHANNELS 3 Zrotation Xrotation Yrotation
                JOINT rMid2
                {
                  OFFSET -3.10165 -0.590103 1.0647
                  CHANNELS 3 Zrotation Xrotation Yrotation
                  End Site
                  {
                    OFFSET -2.48547 -0.328903 0.83742
                  }
                }
              }
              JOINT rRing1
              {
                OFFSET -8.82822 0.546677 1.51678
                CHANNELS 3 Zrotation Xrotation Yrotation
                JOINT rRing2
                {
                  OFFSET -2.60934 -0.819778 -0.0198488
                  CHANNELS 3 Zrotation Xrotation Yrotation
                  End Site
                  {
                    OFFSET -2.33842 -0.294052 0.168128
                  }
                }
              }
              JOINT rPinky1
              {
                OFFSET -8.27202 -0.0477905 -0.4584
                CHANNELS 3 Zrotation Xrotation Yrotation
                JOINT rPinky2
                {
                  OFFSET -1.82734 -0.647385 -0.700984
                  CHANNELS 3 Zrotation Xrotation Yrotation
                  End Site
                  {
                    OFFSET -1.69225 -0.51767 -0.607171
                  }
                }
              }
            }
          }
        }
      }
      JOINT lCollar
      {
        OFFSET 2.68224 19.2634 -4.8768
        CHANNELS 3 Zrotation Xrotation Yrotation
        JOINT lShldr
        {
          OFFSET 8.77824 -1.95073 1.46304
          CHANNELS 3 Zrotation Xrotation Yrotation
          JOINT lForeArm
          {
            OFFSET 28.1742 -1.7115 0.48768
            CHANNELS 3 Zrotation Xrotation Yrotation
            JOINT lHand
            {
              OFFSET 22.5879 0.773209 7.07136
              CHANNELS 3 Zrotation Xrotation Yrotation
              JOINT lThumb1
              {
                OFFSET 1.2192 -0.487915 3.41376
                CHANNELS 3 Zrotation Xrotation Yrotation
                JOINT lThumb2
                {
                  OFFSET 3.37035 -0.52449 3.41376
                  CHANNELS 3 Zrotation Xrotation Yrotation
                  End Site
                  {
                    OFFSET 1.78271 -1.18214 1.43049
                  }
                }
              }
              JOINT lIndex1
              {
                OFFSET 7.75947 0.938293 5.60832
                CHANNELS 3 Zrotation Xrotation Yrotation
                JOINT lIndex2
                {
                  OFFSET 2.54057 -0.884171 1.56538
                  CHANNELS 3 Zrotation Xrotation Yrotation
                  End Site
                  {
                    OFFSET 1.62519 -0.234802 1.16502
                  }
                }
              }
              JOINT lMid1
              {
                OFFSET 8.24714 1.18213 3.41376
                CHANNELS 3 Zrotation Xrotation Yrotation
                JOINT lMid2
                {
                  OFFSET 3.10165 -0.590103 1.0647
                  CHANNELS 3 Zrotation Xrotation Yrotation
                  End Site
                  {
                    OFFSET 2.48547 -0.328903 0.83742
                  }
                }
              }
              JOINT lRing1
              {
                OFFSET 8.82822 0.546677 1.51678
                CHANNELS 3 Zrotation Xrotation Yrotation
                JOINT lRing2
                {
                  OFFSET 2.60934 -0.819778 -0.0198488
                  CHANNELS 3 Zrotation Xrotation Yrotation
                  End Site
                  {
                    OFFSET 2.33842 -0.294052 0.168128
                  }
                }
              }
              JOINT lPinky1
              {
                OFFSET 8.27202 -0.0477905 -0.4584
                CHANNELS 3 Zrotation Xrotation Yrotation
                JOINT lPinky2
                {
                  OFFSET 1.82734 -0.647385 -0.700984
                  CHANNELS 3 Zrotation Xrotation Yrotation
                  End Site
                  {
                    OFFSET 1.69225 -0.51767 -0.607171
                  }
                }
              }
            }
          }
        }
      }
    }
  }
  JOINT rButtock
  {
    OFFSET -8.77824 4.35084 1.2192
    CHANNELS 3 Zrotation Xrotation Yrotation
    JOINT rThigh
    {
      OFFSET 0 -1.70687 -2.19456
      CHANNELS 3 Zrotation Xrotation Yrotation
      JOINT rShin
      {
        OFFSET 0 -36.8199 0.73152
        CHANNELS 3 Zrotation Xrotation Yrotation
        JOINT rFoot
        {
          OFFSET 0.73152 -45.1104 -5.12064
          CHANNELS 3 Zrotation Xrotation Yrotation
          End Site
          {
            OFFSET -1.1221 -3.69964 12.103
          }
        }
      }
    }
  }
  JOINT lButtock
  {
    OFFSET 8.77824 4.35084 1.2192
    CHANNELS 3 Zrotation Xrotation Yrotation
    JOINT lThigh
    {
      OFFSET 0 -1.70687 -2.19456
      CHANNELS 3 Zrotation Xrotation Yrotation
      JOINT lShin
      {
        OFFSET 0 -36.8199 0.73152
        CHANNELS 3 Zrotation Xrotation Yrotation
        JOINT lFoot
        {
          OFFSET -0.73152 -45.1104 -5.12064
          CHANNELS 3 Zrotation Xrotation Yrotation
          End Site
          {
            OFFSET 1.1221 -3.69964 12.103
          }
        }
      }
    }
  }
}
MOTION
Frames:	6
Frame Time:	0.03333
0.0 0.0 0.0 0.0 0.0 0.0 0.0 0.0 0.0 0.0 0.0 0.0 0.0 0.0 0.0 0.0 0.0 0.0 0.0 0.0 0.0 0.0 0.0 0.0 0.0 0.0 0.0 0.0 0.0 0.0 0.0 0.0 0.0 0.0 0.0 0.0 0.0 0.0 0.0 0.0 0.0 0.0 0.0 0.0 0.0 0.0 0.0 0.0 0.0 0.0 0.0 0.0 0.0 0.0 0.0 0.0 0.0 0.0 0.0 0.0 0.0 0.0 0.0 0.0 0.0 0.0 0.0 0.0 0.0 0.0 0.0 0.0 0.0 0.0 0.0 0.0 0.0 0.0 0.0 0.0 0.0 0.0 0.0 0.0 0.0 0.0 0.0 0.0 0.0 0.0 0.0 0.0 0.0 0.0 0.0 0.0 0.0 0.0 0.0 0.0 0.0 0.0 0.0 0.0 0.0 0.0 0.0 0.0 0.0 0.0 0.0 0.0 0.0 0.0 0.0 0.0 0.0 0.0 0.0 0.0 0.0 0.0 0.0 0.0 0.0 0.0 0.0 0.0 0.0 0.0 0.0 0.0
0.0246 61.8873 -0.0494 -0.284381 26.39503 -0.835163 0.715141 -1.018473 -144.921814 0.26936 -11.885043 -176.308148 -10.883603 -13.996293 -43.126772 41.92559 -20.668503 50.381705 -158.865317 -4.824935 -25.451677 -41.368993 4.667633 -12.321781 83.362886 21.797788 9.695889 -175.980192 -63.383463 -177.505305 4.17362 7.701472 -134.592375 178.00615 2.925203 100.484232 -176.403863 -13.652264 39.695416 -58.506356 8.637015 -127.43899 -73.005702 -38.642654 -113.670553 104.170359 -85.837194 21.621351 -102.451039 76.196947 8.908251 -113.120867 -59.133457 137.12291 -2.552752 11.118108 -61.432376 104.333286 -12.715 44.335856 -109.710127 -30.477839 -68.093672 -52.289002 -16.312617 -37.847941 34.004557 -87.097508 125.198523 -8.476779 7.065007 -0.260261 -19.928663 82.718631 -148.922197 -12.987606 -50.854343 133.485463 -174.898134 -7.444221 27.271544 -43.996757 -40.674502 -58.175383 157.148423 -3.791359 -63.746056 9.671046 49.072004 63.295511 -20.793858 -46.14298 -71.49602 171.401345 -71.766289 -20.549884 93.229208 -0.627244 0.889596 -86.477034 -11.154427 25.063982 35.362712 10.68788 -0.034127 2.489936 -0.46175 3.089241 44.954278 5.2498 85.168188 -12.071609 44.982879 0.0 10.268811 -1.822935 83.328974 -66.155353 -21.800444 109.707111 -12.076606 -44.289423 -0.0 18.754371 43.41316 -103.240858 -3.8148 -6.646373 -37.929091 25.411185 -57.199607 -161.848757
0.1092 62.119800000000005 0.3331 -50.955098 76.395518 -44.535148 13.004434 3.702417 -81.973022 3.495295 -7.65083 91.417119 -9.657517 27.473283 -106.255921 26.829384 24.954895 116.748076 -12.210754 -3.365257 30.713387 -12.070437 -3.929083 35.94978 3.144077 -0.438035 3.873095 16.038271 75.806851 58.470887 111.977194 25.64556 117.003884 -156.21966 51.361727 123.027649 66.568777 -56.688116 20.00148 -52.620632 24.65122 27.127126 -157.96236 -18.451109 112.5224 -55.422425 24.499507 70.84904 0.871747 -63.385685 -7.87173 -8.222815 59.135858 13.273914 -30.604169 -2.202854 1.831013 -131.521613 -3.05522 170.214195 -142.099377 -58.019972 -116.095361 -162.91661 27.538879 -145.164678 -1.166178 -26.257614 4.289841 -74.883057 -5.276674 -23.784895 -166.318902 -9.74027 -58.170469 -172.587367 -6.280816 -142.760543 84.341463 40.068025 -49.107283 85.564725 -8.512351 -82.30348 127.76612 29.592614 -114.432081 92.900121 85.693303 -47.031471 164.632654 -6.816646 -143.581429 98.695425 52.728191 -87.10453 153.562469 3.167834 -178.756664 91.91237 -70.04209 93.20207 136.285457 -37.938541 108.700989 -24.876738 37.708254 37.317666 -2.206338 -20.929794 1.863075 0.171916 13.741322 -0.0 31.012271 43.202394 80.466402 -85.838639 -18.270048 -159.541268 28.023197 -8.722532 50.961844 -43.044575 -42.317184 -54.214795 -64.815452 61.534408 -45.997366 137.021089 -5.964734 -140.206439
1.3937 66.49340000000001 -0.2586 -39.818091 73.482457 -36.535527 12.695945 -1.416981 83.736003 1.115333 6.653681 -71.350058 1.915825 6.391798 16.030816 1.818003 -10.02812 -0.615358 6.82604 1.451028 23.975405 -9.615428 1.279311 -15.122579 55.959453 -84.580738 32.103886 -173.443309 18.34906 -133.357173 0.687706 -47.017539 74.75869 -8.29035 -13.298652 -16.014765 91.781181 -46.320803 24.779092 -156.880841 -2.899141 107.711142 -16.948624 22.374446 31.60165 -88.076987 -82.094019 -142.66766 -138.222648 -64.382797 178.701261 8.074816 61.049826 22.991444 14.334834 -45.715131 6.998214 172.200173 -45.438037 150.518476 -53.669865 21.468423 61.928307 -4.630402 -33.515527 -52.20373 151.914333 39.80149 -160.890543 65.185537 0.936036 21.239287 -22.79371 14.55924 113.832775 -169.758819 -13.389681 -135.99065 -3.297585 -15.896584 -11.482846 84.836835 -72.096939 158.002953 12.701541 1.854141 17.580904 -149.243675 -20.662181 -20.901613 145.016701 29.318301 -123.655819 155.532484 10.701228 -107.7885 6.973975 0.115498 6.935208 -2.826818 19.421174 -0.564681 -6.119806 -46.816669 -29.20742 -26.654872 13.770761 54.921273 -2.443237 80.917772 -177.05526 16.708718 75.758316 -0.0 -32.500446 -41.347153 19.898111 174.58484 -19.769738 -81.557062 -32.534738 -6.584856 -26.260241 82.065048 -33.952955 85.548659 58.324185 39.722264 3.122659 16.899597 -0.007984 -64.813991
2.5084 66.3583 -0.7778 -47.847548 76.508283 -45.998526 6.408462 0.03122 90.152639 -0.886793 0.199522 -71.139229 -6.417589 15.600635 -71.835525 18.246098 6.114804 74.38424 -17.459117 -5.578544 35.207933 -13.76218 -0.103399 0.856801 -156.204986 -55.636319 176.655376 -175.947368 -23.39324 -131.657145 111.69285 26.849204 125.811751 -173.19686 36.596621 130.3163 -8.785784 0.619435 7.63257 63.487911 -66.14977 -21.745801 -162.176999 1.080368 108.592453 -21.387662 29.179605 25.923974 -18.653043 52.879568 39.187069 1.252756 74.477811 -37.552971 -119.072837 25.676877 125.65276 32.756671 47.739056 -1.654289 -44.621152 18.45605 51.738118 -117.547116 52.630387 -142.086643 156.713479 -1.415686 -163.896949 -112.87029 17.709006 121.450655 19.433284 30.514473 -78.605698 -0.127651 16.855915 13.720612 172.197212 -2.02266 -89.445405 115.055481 36.038839 -73.560865 -178.883991 -79.233145 -150.206404 -15.315046 -35.315158 91.080396 157.235267 13.820375 -126.133843 155.574633 8.622518 -107.011753 157.107725 -0.210973 -179.861391 37.193264 76.499519 -56.696849 33.64146 78.720734 -66.05243 27.609142 14.630528 -28.470697 24.79372 -14.912212 30.329837 -9.485816 28.544794 -101.018548 -49.072038 24.379558 -87.499396 45.33715 -16.62723 133.340687 18.221023 -1.570172 8.776628 16.08593 -63.550933 14.618371 -47.771742 59.159845 -63.354452 46.748878 -33.709661 163.832821
3.6087000000000002 64.9865 -0.3449 -54.236658 75.894774 -52.10852 7.089218 2.169354 92.93909 -4.314477 -0.114746 -71.494643 20.347838 18.041269 98.554588 -18.592808 18.159393 -101.071422 -39.59668 -13.319887 35.941439 -3.336325 -0.582512 19.802338 -155.112988 13.172201 165.867616 -159.302952 78.299562 105.693934 -149.873494 63.600679 -142.067592 -2.95839 25.501691 -8.97581 -167.94705 0.033663 85.128251 -133.440058 13.188054 35.35525 0.921571 -28.568799 5.205102 -74.804601 80.343608 51.740215 -132.747138 -36.630114 147.529507 -128.560718 -56.755402 150.71345 -119.014833 76.34902 121.639686 -152.295495 67.410561 140.022317 -3.224378 -50.662636 32.88038 -152.237477 0.93327 -107.449899 116.078916 57.209369 -118.580648 -110.881436 -18.477198 -167.228676 -179.238821 -2.653986 -80.080905 163.111816 25.483169 -130.699896 -95.988731 -77.408603 -27.072446 118.447178 28.813576 -126.997425 169.43561 -17.248036 -122.990327 -25.377341 -55.121184 -77.321885 33.087721 53.776335 -35.617437 174.395602 72.944256 177.923683 18.695121 0.726331 6.469864 95.937859 60.371841 -93.674107 168.975967 -16.366489 111.248914 -62.298553 27.559849 90.55996 44.112773 29.585796 66.842115 -35.567277 26.21113 -121.702683 -27.674991 33.834798 55.661952 177.136639 -34.258799 62.750425 152.586642 73.144285 28.454545 -153.139594 2.378945 94.685378 73.547892 -8.87531 -20.236752 -126.976527 6.002791 48.102106
